<svg width="284" height="230" viewBox="0 0 284 230" fill="none" xmlns="http://www.w3.org/2000/svg">
<line x1="17" y1="149" x2="232.455" y2="149" stroke="white" stroke-width="6"/>
<line y1="-3" x2="254.622" y2="-3" transform="matrix(0.846176 -0.532903 0.37901 0.925393 19.5447 150.948)" stroke="white" stroke-width="6"/>
<line x1="235.455" y1="10" x2="235.455" y2="152" stroke="white" stroke-width="6"/>
<line x1="8.74228e-08" y1="211" x2="252" y2="211" stroke="white" stroke-width="2"/>
<line x1="18" y1="176" x2="18" y2="230" stroke="white" stroke-width="2"/>
<line x1="236" y1="176" x2="236" y2="230" stroke="white" stroke-width="2"/>
<line x1="272.333" y1="165" x2="272.333" y2="-1.59451e-07" stroke="white" stroke-width="2"/>
<line x1="252" y1="152.869" x2="284" y2="152.869" stroke="white" stroke-width="2"/>
<line x1="252" y1="10.131" x2="284" y2="10.131" stroke="white" stroke-width="2"/>
<path d="M68.4092 199.835H69.7217C69.6533 200.464 69.4733 201.027 69.1816 201.523C68.89 202.02 68.4775 202.414 67.9443 202.706C67.4111 202.993 66.7458 203.137 65.9482 203.137C65.3649 203.137 64.834 203.027 64.3555 202.809C63.8815 202.59 63.4736 202.28 63.1318 201.879C62.79 201.473 62.5257 200.988 62.3389 200.423C62.1566 199.853 62.0654 199.22 62.0654 198.522V197.531C62.0654 196.834 62.1566 196.203 62.3389 195.638C62.5257 195.068 62.7923 194.58 63.1387 194.175C63.4896 193.769 63.9111 193.457 64.4033 193.238C64.8955 193.02 65.4492 192.91 66.0645 192.91C66.8164 192.91 67.4521 193.051 67.9717 193.334C68.4912 193.617 68.8945 194.008 69.1816 194.51C69.4733 195.007 69.6533 195.583 69.7217 196.239H68.4092C68.3454 195.774 68.2269 195.376 68.0537 195.043C67.8805 194.706 67.6344 194.446 67.3154 194.264C66.9964 194.081 66.5794 193.99 66.0645 193.99C65.6224 193.99 65.2327 194.075 64.8955 194.243C64.5628 194.412 64.2826 194.651 64.0547 194.961C63.8314 195.271 63.6628 195.642 63.5488 196.075C63.4349 196.508 63.3779 196.989 63.3779 197.518V198.522C63.3779 199.01 63.4281 199.468 63.5283 199.896C63.6331 200.325 63.7904 200.701 64 201.024C64.2096 201.348 64.4762 201.603 64.7998 201.79C65.1234 201.972 65.5062 202.063 65.9482 202.063C66.5088 202.063 66.9554 201.975 67.2881 201.797C67.6208 201.619 67.8714 201.364 68.04 201.031C68.2132 200.699 68.3363 200.3 68.4092 199.835ZM70.9932 199.384V199.227C70.9932 198.693 71.0706 198.199 71.2256 197.743C71.3805 197.283 71.6038 196.884 71.8955 196.547C72.1872 196.205 72.5404 195.941 72.9551 195.754C73.3698 195.562 73.8346 195.467 74.3496 195.467C74.8691 195.467 75.3363 195.562 75.751 195.754C76.1702 195.941 76.5257 196.205 76.8174 196.547C77.1136 196.884 77.3392 197.283 77.4941 197.743C77.6491 198.199 77.7266 198.693 77.7266 199.227V199.384C77.7266 199.917 77.6491 200.411 77.4941 200.867C77.3392 201.323 77.1136 201.722 76.8174 202.063C76.5257 202.401 76.1725 202.665 75.7578 202.856C75.3477 203.043 74.8828 203.137 74.3633 203.137C73.8438 203.137 73.3766 203.043 72.9619 202.856C72.5472 202.665 72.1917 202.401 71.8955 202.063C71.6038 201.722 71.3805 201.323 71.2256 200.867C71.0706 200.411 70.9932 199.917 70.9932 199.384ZM72.2578 199.227V199.384C72.2578 199.753 72.3011 200.102 72.3877 200.43C72.4743 200.753 72.6042 201.04 72.7773 201.291C72.9551 201.542 73.1761 201.74 73.4404 201.886C73.7048 202.027 74.0124 202.098 74.3633 202.098C74.7096 202.098 75.0127 202.027 75.2725 201.886C75.5368 201.74 75.7555 201.542 75.9287 201.291C76.1019 201.04 76.2318 200.753 76.3184 200.43C76.4095 200.102 76.4551 199.753 76.4551 199.384V199.227C76.4551 198.862 76.4095 198.518 76.3184 198.194C76.2318 197.866 76.0996 197.577 75.9219 197.326C75.7487 197.071 75.5299 196.87 75.2656 196.725C75.0059 196.579 74.7005 196.506 74.3496 196.506C74.0033 196.506 73.6979 196.579 73.4336 196.725C73.1738 196.87 72.9551 197.071 72.7773 197.326C72.6042 197.577 72.4743 197.866 72.3877 198.194C72.3011 198.518 72.2578 198.862 72.2578 199.227ZM80.5703 197.073V203H79.2988V195.604H80.502L80.5703 197.073ZM80.3105 199.021L79.7227 199.001C79.7272 198.495 79.7933 198.028 79.9209 197.6C80.0485 197.167 80.2376 196.791 80.4883 196.472C80.7389 196.153 81.0511 195.907 81.4248 195.733C81.7985 195.556 82.2314 195.467 82.7236 195.467C83.07 195.467 83.389 195.517 83.6807 195.617C83.9723 195.713 84.2253 195.866 84.4395 196.075C84.6536 196.285 84.82 196.554 84.9385 196.882C85.057 197.21 85.1162 197.606 85.1162 198.071V203H83.8516V198.133C83.8516 197.745 83.7855 197.436 83.6533 197.203C83.5257 196.971 83.3434 196.802 83.1064 196.697C82.8695 196.588 82.5915 196.533 82.2725 196.533C81.8988 196.533 81.5866 196.599 81.3359 196.731C81.0853 196.864 80.8848 197.046 80.7344 197.278C80.584 197.511 80.4746 197.777 80.4062 198.078C80.3424 198.374 80.3105 198.689 80.3105 199.021ZM85.1025 198.324L84.2549 198.584C84.2594 198.178 84.3255 197.789 84.4531 197.415C84.5853 197.041 84.7744 196.709 85.0205 196.417C85.2712 196.125 85.5788 195.895 85.9434 195.727C86.3079 195.553 86.7249 195.467 87.1943 195.467C87.5908 195.467 87.9417 195.519 88.2471 195.624C88.557 195.729 88.8167 195.891 89.0264 196.109C89.2406 196.324 89.4023 196.599 89.5117 196.937C89.6211 197.274 89.6758 197.675 89.6758 198.14V203H88.4043V198.126C88.4043 197.711 88.3382 197.39 88.2061 197.162C88.0785 196.93 87.8962 196.768 87.6592 196.677C87.4268 196.581 87.1488 196.533 86.8252 196.533C86.5472 196.533 86.3011 196.581 86.0869 196.677C85.8727 196.772 85.6927 196.905 85.5469 197.073C85.401 197.237 85.2894 197.426 85.2119 197.641C85.139 197.855 85.1025 198.083 85.1025 198.324ZM92.8545 197.025V205.844H91.583V195.604H92.7451L92.8545 197.025ZM97.8379 199.24V199.384C97.8379 199.922 97.7741 200.421 97.6465 200.881C97.5189 201.337 97.332 201.733 97.0859 202.07C96.8444 202.408 96.5459 202.67 96.1904 202.856C95.835 203.043 95.4271 203.137 94.9668 203.137C94.4974 203.137 94.0827 203.059 93.7227 202.904C93.3626 202.749 93.0573 202.524 92.8066 202.228C92.556 201.931 92.3555 201.576 92.2051 201.161C92.0592 200.746 91.959 200.279 91.9043 199.76V198.994C91.959 198.447 92.0615 197.957 92.2119 197.524C92.3623 197.091 92.5605 196.722 92.8066 196.417C93.0573 196.107 93.3604 195.872 93.7158 195.713C94.0713 195.549 94.4814 195.467 94.9463 195.467C95.4111 195.467 95.8236 195.558 96.1836 195.74C96.5436 195.918 96.8467 196.173 97.0928 196.506C97.3389 196.839 97.5234 197.237 97.6465 197.702C97.7741 198.162 97.8379 198.675 97.8379 199.24ZM96.5664 199.384V199.24C96.5664 198.871 96.5277 198.525 96.4502 198.201C96.3727 197.873 96.252 197.586 96.0879 197.34C95.9284 197.089 95.7233 196.893 95.4727 196.752C95.222 196.606 94.9235 196.533 94.5771 196.533C94.2581 196.533 93.9801 196.588 93.7432 196.697C93.5107 196.807 93.3125 196.955 93.1484 197.142C92.9844 197.324 92.8499 197.534 92.7451 197.771C92.6449 198.003 92.5697 198.244 92.5195 198.495V200.266C92.6107 200.585 92.7383 200.885 92.9023 201.168C93.0664 201.446 93.2852 201.672 93.5586 201.845C93.832 202.013 94.1761 202.098 94.5908 202.098C94.9326 202.098 95.2266 202.027 95.4727 201.886C95.7233 201.74 95.9284 201.542 96.0879 201.291C96.252 201.04 96.3727 200.753 96.4502 200.43C96.5277 200.102 96.5664 199.753 96.5664 199.384ZM100.716 196.766V203H99.4512V195.604H100.682L100.716 196.766ZM103.026 195.562L103.02 196.738C102.915 196.715 102.814 196.702 102.719 196.697C102.628 196.688 102.523 196.684 102.404 196.684C102.113 196.684 101.855 196.729 101.632 196.82C101.409 196.911 101.219 197.039 101.064 197.203C100.91 197.367 100.786 197.563 100.695 197.791C100.609 198.014 100.552 198.26 100.524 198.529L100.169 198.734C100.169 198.288 100.212 197.868 100.299 197.477C100.39 197.085 100.529 196.738 100.716 196.438C100.903 196.132 101.14 195.895 101.427 195.727C101.718 195.553 102.065 195.467 102.466 195.467C102.557 195.467 102.662 195.478 102.78 195.501C102.899 195.519 102.981 195.54 103.026 195.562ZM105.569 195.604V203H104.298V195.604H105.569ZM104.202 193.642C104.202 193.437 104.264 193.263 104.387 193.122C104.514 192.981 104.701 192.91 104.947 192.91C105.189 192.91 105.373 192.981 105.501 193.122C105.633 193.263 105.699 193.437 105.699 193.642C105.699 193.838 105.633 194.006 105.501 194.147C105.373 194.284 105.189 194.353 104.947 194.353C104.701 194.353 104.514 194.284 104.387 194.147C104.264 194.006 104.202 193.838 104.202 193.642ZM108.857 197.073V203H107.586V195.604H108.789L108.857 197.073ZM108.598 199.021L108.01 199.001C108.014 198.495 108.08 198.028 108.208 197.6C108.336 197.167 108.525 196.791 108.775 196.472C109.026 196.153 109.338 195.907 109.712 195.733C110.086 195.556 110.519 195.467 111.011 195.467C111.357 195.467 111.676 195.517 111.968 195.617C112.259 195.713 112.512 195.866 112.727 196.075C112.941 196.285 113.107 196.554 113.226 196.882C113.344 197.21 113.403 197.606 113.403 198.071V203H112.139V198.133C112.139 197.745 112.073 197.436 111.94 197.203C111.813 196.971 111.631 196.802 111.394 196.697C111.157 196.588 110.879 196.533 110.56 196.533C110.186 196.533 109.874 196.599 109.623 196.731C109.372 196.864 109.172 197.046 109.021 197.278C108.871 197.511 108.762 197.777 108.693 198.078C108.63 198.374 108.598 198.689 108.598 199.021ZM113.39 198.324L112.542 198.584C112.547 198.178 112.613 197.789 112.74 197.415C112.872 197.041 113.062 196.709 113.308 196.417C113.558 196.125 113.866 195.895 114.23 195.727C114.595 195.553 115.012 195.467 115.481 195.467C115.878 195.467 116.229 195.519 116.534 195.624C116.844 195.729 117.104 195.891 117.313 196.109C117.528 196.324 117.689 196.599 117.799 196.937C117.908 197.274 117.963 197.675 117.963 198.14V203H116.691V198.126C116.691 197.711 116.625 197.39 116.493 197.162C116.366 196.93 116.183 196.768 115.946 196.677C115.714 196.581 115.436 196.533 115.112 196.533C114.834 196.533 114.588 196.581 114.374 196.677C114.16 196.772 113.98 196.905 113.834 197.073C113.688 197.237 113.576 197.426 113.499 197.641C113.426 197.855 113.39 198.083 113.39 198.324ZM122.946 203.137C122.431 203.137 121.964 203.05 121.545 202.877C121.13 202.699 120.772 202.451 120.472 202.132C120.175 201.813 119.948 201.435 119.788 200.997C119.629 200.56 119.549 200.081 119.549 199.562V199.274C119.549 198.673 119.638 198.137 119.815 197.668C119.993 197.194 120.235 196.793 120.54 196.465C120.845 196.137 121.192 195.888 121.579 195.72C121.966 195.551 122.368 195.467 122.782 195.467C123.311 195.467 123.767 195.558 124.149 195.74C124.537 195.923 124.854 196.178 125.1 196.506C125.346 196.829 125.528 197.212 125.646 197.654C125.765 198.092 125.824 198.57 125.824 199.09V199.657H120.301V198.625H124.56V198.529C124.541 198.201 124.473 197.882 124.354 197.572C124.241 197.262 124.058 197.007 123.808 196.807C123.557 196.606 123.215 196.506 122.782 196.506C122.495 196.506 122.231 196.567 121.989 196.69C121.748 196.809 121.54 196.987 121.367 197.224C121.194 197.461 121.06 197.75 120.964 198.092C120.868 198.434 120.82 198.828 120.82 199.274V199.562C120.82 199.912 120.868 200.243 120.964 200.553C121.064 200.858 121.208 201.127 121.395 201.359C121.586 201.592 121.816 201.774 122.085 201.906C122.358 202.038 122.668 202.104 123.015 202.104C123.461 202.104 123.84 202.013 124.149 201.831C124.459 201.649 124.73 201.405 124.963 201.1L125.729 201.708C125.569 201.95 125.366 202.18 125.12 202.398C124.874 202.617 124.571 202.795 124.211 202.932C123.855 203.068 123.434 203.137 122.946 203.137ZM128.565 197.183V203H127.301V195.604H128.497L128.565 197.183ZM128.265 199.021L127.738 199.001C127.743 198.495 127.818 198.028 127.964 197.6C128.11 197.167 128.315 196.791 128.579 196.472C128.843 196.153 129.158 195.907 129.522 195.733C129.892 195.556 130.299 195.467 130.746 195.467C131.111 195.467 131.439 195.517 131.73 195.617C132.022 195.713 132.271 195.868 132.476 196.082C132.685 196.296 132.845 196.574 132.954 196.916C133.063 197.253 133.118 197.666 133.118 198.153V203H131.847V198.14C131.847 197.752 131.79 197.442 131.676 197.21C131.562 196.973 131.396 196.802 131.177 196.697C130.958 196.588 130.689 196.533 130.37 196.533C130.056 196.533 129.769 196.599 129.509 196.731C129.254 196.864 129.033 197.046 128.846 197.278C128.663 197.511 128.52 197.777 128.415 198.078C128.315 198.374 128.265 198.689 128.265 199.021ZM138.136 195.604V196.574H134.137V195.604H138.136ZM135.49 193.806H136.755V201.168C136.755 201.419 136.794 201.608 136.871 201.735C136.949 201.863 137.049 201.947 137.172 201.988C137.295 202.029 137.427 202.05 137.568 202.05C137.673 202.05 137.783 202.041 137.896 202.022C138.015 202 138.104 201.981 138.163 201.968L138.17 203C138.07 203.032 137.938 203.062 137.773 203.089C137.614 203.121 137.42 203.137 137.192 203.137C136.882 203.137 136.598 203.075 136.338 202.952C136.078 202.829 135.871 202.624 135.716 202.337C135.565 202.045 135.49 201.653 135.49 201.161V193.806ZM139.147 199.384V199.227C139.147 198.693 139.225 198.199 139.38 197.743C139.535 197.283 139.758 196.884 140.05 196.547C140.341 196.205 140.695 195.941 141.109 195.754C141.524 195.562 141.989 195.467 142.504 195.467C143.023 195.467 143.491 195.562 143.905 195.754C144.325 195.941 144.68 196.205 144.972 196.547C145.268 196.884 145.493 197.283 145.648 197.743C145.803 198.199 145.881 198.693 145.881 199.227V199.384C145.881 199.917 145.803 200.411 145.648 200.867C145.493 201.323 145.268 201.722 144.972 202.063C144.68 202.401 144.327 202.665 143.912 202.856C143.502 203.043 143.037 203.137 142.518 203.137C141.998 203.137 141.531 203.043 141.116 202.856C140.701 202.665 140.346 202.401 140.05 202.063C139.758 201.722 139.535 201.323 139.38 200.867C139.225 200.411 139.147 199.917 139.147 199.384ZM140.412 199.227V199.384C140.412 199.753 140.455 200.102 140.542 200.43C140.629 200.753 140.758 201.04 140.932 201.291C141.109 201.542 141.33 201.74 141.595 201.886C141.859 202.027 142.167 202.098 142.518 202.098C142.864 202.098 143.167 202.027 143.427 201.886C143.691 201.74 143.91 201.542 144.083 201.291C144.256 201.04 144.386 200.753 144.473 200.43C144.564 200.102 144.609 199.753 144.609 199.384V199.227C144.609 198.862 144.564 198.518 144.473 198.194C144.386 197.866 144.254 197.577 144.076 197.326C143.903 197.071 143.684 196.87 143.42 196.725C143.16 196.579 142.855 196.506 142.504 196.506C142.158 196.506 141.852 196.579 141.588 196.725C141.328 196.87 141.109 197.071 140.932 197.326C140.758 197.577 140.629 197.866 140.542 198.194C140.455 198.518 140.412 198.862 140.412 199.227ZM154.009 203.137C153.494 203.137 153.027 203.05 152.607 202.877C152.193 202.699 151.835 202.451 151.534 202.132C151.238 201.813 151.01 201.435 150.851 200.997C150.691 200.56 150.611 200.081 150.611 199.562V199.274C150.611 198.673 150.7 198.137 150.878 197.668C151.056 197.194 151.297 196.793 151.603 196.465C151.908 196.137 152.254 195.888 152.642 195.72C153.029 195.551 153.43 195.467 153.845 195.467C154.373 195.467 154.829 195.558 155.212 195.74C155.599 195.923 155.916 196.178 156.162 196.506C156.408 196.829 156.59 197.212 156.709 197.654C156.827 198.092 156.887 198.57 156.887 199.09V199.657H151.363V198.625H155.622V198.529C155.604 198.201 155.535 197.882 155.417 197.572C155.303 197.262 155.121 197.007 154.87 196.807C154.619 196.606 154.278 196.506 153.845 196.506C153.558 196.506 153.293 196.567 153.052 196.69C152.81 196.809 152.603 196.987 152.43 197.224C152.257 197.461 152.122 197.75 152.026 198.092C151.931 198.434 151.883 198.828 151.883 199.274V199.562C151.883 199.912 151.931 200.243 152.026 200.553C152.127 200.858 152.27 201.127 152.457 201.359C152.648 201.592 152.879 201.774 153.147 201.906C153.421 202.038 153.731 202.104 154.077 202.104C154.524 202.104 154.902 202.013 155.212 201.831C155.522 201.649 155.793 201.405 156.025 201.1L156.791 201.708C156.632 201.95 156.429 202.18 156.183 202.398C155.937 202.617 155.633 202.795 155.273 202.932C154.918 203.068 154.496 203.137 154.009 203.137ZM159.621 197.073V203H158.35V195.604H159.553L159.621 197.073ZM159.361 199.021L158.773 199.001C158.778 198.495 158.844 198.028 158.972 197.6C159.099 197.167 159.288 196.791 159.539 196.472C159.79 196.153 160.102 195.907 160.476 195.733C160.849 195.556 161.282 195.467 161.774 195.467C162.121 195.467 162.44 195.517 162.731 195.617C163.023 195.713 163.276 195.866 163.49 196.075C163.704 196.285 163.871 196.554 163.989 196.882C164.108 197.21 164.167 197.606 164.167 198.071V203H162.902V198.133C162.902 197.745 162.836 197.436 162.704 197.203C162.576 196.971 162.394 196.802 162.157 196.697C161.92 196.588 161.642 196.533 161.323 196.533C160.95 196.533 160.637 196.599 160.387 196.731C160.136 196.864 159.936 197.046 159.785 197.278C159.635 197.511 159.525 197.777 159.457 198.078C159.393 198.374 159.361 198.689 159.361 199.021ZM164.153 198.324L163.306 198.584C163.31 198.178 163.376 197.789 163.504 197.415C163.636 197.041 163.825 196.709 164.071 196.417C164.322 196.125 164.63 195.895 164.994 195.727C165.359 195.553 165.776 195.467 166.245 195.467C166.642 195.467 166.993 195.519 167.298 195.624C167.608 195.729 167.868 195.891 168.077 196.109C168.291 196.324 168.453 196.599 168.562 196.937C168.672 197.274 168.727 197.675 168.727 198.14V203H167.455V198.126C167.455 197.711 167.389 197.39 167.257 197.162C167.129 196.93 166.947 196.768 166.71 196.677C166.478 196.581 166.2 196.533 165.876 196.533C165.598 196.533 165.352 196.581 165.138 196.677C164.924 196.772 164.743 196.905 164.598 197.073C164.452 197.237 164.34 197.426 164.263 197.641C164.19 197.855 164.153 198.083 164.153 198.324ZM177.073 202.098C177.374 202.098 177.652 202.036 177.907 201.913C178.162 201.79 178.372 201.621 178.536 201.407C178.7 201.188 178.794 200.94 178.816 200.662H180.02C179.997 201.1 179.849 201.507 179.575 201.886C179.306 202.259 178.953 202.562 178.516 202.795C178.078 203.023 177.597 203.137 177.073 203.137C176.517 203.137 176.032 203.039 175.617 202.843C175.207 202.647 174.865 202.378 174.592 202.036C174.323 201.694 174.12 201.302 173.983 200.86C173.851 200.414 173.785 199.942 173.785 199.445V199.158C173.785 198.661 173.851 198.192 173.983 197.75C174.12 197.303 174.323 196.909 174.592 196.567C174.865 196.226 175.207 195.957 175.617 195.761C176.032 195.565 176.517 195.467 177.073 195.467C177.652 195.467 178.158 195.585 178.591 195.822C179.024 196.055 179.363 196.374 179.609 196.779C179.86 197.18 179.997 197.636 180.02 198.146H178.816C178.794 197.841 178.707 197.565 178.557 197.319C178.411 197.073 178.21 196.877 177.955 196.731C177.704 196.581 177.41 196.506 177.073 196.506C176.686 196.506 176.36 196.583 176.096 196.738C175.836 196.889 175.629 197.094 175.474 197.354C175.323 197.609 175.214 197.894 175.146 198.208C175.082 198.518 175.05 198.835 175.05 199.158V199.445C175.05 199.769 175.082 200.088 175.146 200.402C175.209 200.717 175.316 201.002 175.467 201.257C175.622 201.512 175.829 201.717 176.089 201.872C176.353 202.022 176.681 202.098 177.073 202.098ZM182.699 197.073V203H181.428V195.604H182.631L182.699 197.073ZM182.439 199.021L181.852 199.001C181.856 198.495 181.922 198.028 182.05 197.6C182.177 197.167 182.367 196.791 182.617 196.472C182.868 196.153 183.18 195.907 183.554 195.733C183.927 195.556 184.36 195.467 184.853 195.467C185.199 195.467 185.518 195.517 185.81 195.617C186.101 195.713 186.354 195.866 186.568 196.075C186.783 196.285 186.949 196.554 187.067 196.882C187.186 197.21 187.245 197.606 187.245 198.071V203H185.98V198.133C185.98 197.745 185.914 197.436 185.782 197.203C185.655 196.971 185.472 196.802 185.235 196.697C184.998 196.588 184.72 196.533 184.401 196.533C184.028 196.533 183.715 196.599 183.465 196.731C183.214 196.864 183.014 197.046 182.863 197.278C182.713 197.511 182.604 197.777 182.535 198.078C182.471 198.374 182.439 198.689 182.439 199.021ZM187.231 198.324L186.384 198.584C186.388 198.178 186.454 197.789 186.582 197.415C186.714 197.041 186.903 196.709 187.149 196.417C187.4 196.125 187.708 195.895 188.072 195.727C188.437 195.553 188.854 195.467 189.323 195.467C189.72 195.467 190.071 195.519 190.376 195.624C190.686 195.729 190.946 195.891 191.155 196.109C191.369 196.324 191.531 196.599 191.641 196.937C191.75 197.274 191.805 197.675 191.805 198.14V203H190.533V198.126C190.533 197.711 190.467 197.39 190.335 197.162C190.207 196.93 190.025 196.768 189.788 196.677C189.556 196.581 189.278 196.533 188.954 196.533C188.676 196.533 188.43 196.581 188.216 196.677C188.002 196.772 187.822 196.905 187.676 197.073C187.53 197.237 187.418 197.426 187.341 197.641C187.268 197.855 187.231 198.083 187.231 198.324Z" fill="white"/>
<path d="M254.929 115.75L264 119.045L264 120.392L254.047 116.598L254.047 115.729L254.929 115.75ZM264 112.988L254.929 116.29L254.047 116.311L254.047 115.442L264 111.635L264 112.988ZM260.315 113.159L261.396 113.159L261.396 118.751L260.315 118.751L260.315 113.159ZM253.5 109.119L264 109.119L264 110.391L253.5 110.391L253.5 109.119ZM256.604 103.992L257.574 103.992L257.574 107.991L256.604 107.991L256.604 103.992ZM254.806 106.638L254.806 105.373L262.168 105.373C262.419 105.373 262.608 105.334 262.735 105.257C262.863 105.179 262.947 105.079 262.988 104.956C263.029 104.833 263.05 104.701 263.05 104.56C263.05 104.455 263.041 104.345 263.022 104.231C263 104.113 262.981 104.024 262.968 103.965L264 103.958C264.032 104.058 264.062 104.19 264.089 104.354C264.121 104.514 264.137 104.708 264.137 104.936C264.137 105.245 264.075 105.53 263.952 105.79C263.829 106.05 263.624 106.257 263.337 106.412C263.045 106.563 262.653 106.638 262.161 106.638L254.806 106.638ZM262.291 97.9834L256.604 97.9834L256.604 96.7119L264 96.7119L264 97.9219L262.291 97.9834ZM260.732 97.7441L260.719 97.2178C261.211 97.2178 261.667 97.2702 262.086 97.375C262.501 97.4753 262.861 97.6393 263.166 97.8672C263.471 98.0951 263.711 98.3936 263.884 98.7627C264.052 99.1318 264.137 99.5807 264.137 100.109C264.137 100.469 264.084 100.8 263.979 101.101C263.875 101.397 263.713 101.652 263.494 101.866C263.275 102.08 262.991 102.247 262.64 102.365C262.289 102.479 261.867 102.536 261.375 102.536L256.604 102.536L256.604 101.271L261.389 101.271C261.721 101.271 261.997 101.235 262.216 101.162C262.43 101.085 262.601 100.982 262.729 100.854C262.852 100.722 262.938 100.576 262.988 100.417C263.038 100.253 263.063 100.084 263.063 99.9111C263.063 99.3734 262.961 98.9473 262.756 98.6328C262.546 98.3184 262.266 98.0928 261.915 97.9561C261.56 97.8148 261.165 97.7441 260.732 97.7441ZM257.766 93.5195L264 93.5195L264 94.7842L256.604 94.7842L256.604 93.5537L257.766 93.5195ZM256.563 91.209L257.738 91.2158C257.715 91.3206 257.702 91.4209 257.697 91.5166C257.688 91.6077 257.684 91.7126 257.684 91.8311C257.684 92.1227 257.729 92.3802 257.82 92.6035C257.911 92.8268 258.039 93.016 258.203 93.1709C258.367 93.3258 258.563 93.4489 258.791 93.54C259.014 93.6266 259.26 93.6836 259.529 93.7109L259.734 94.0664C259.288 94.0664 258.868 94.0231 258.477 93.9365C258.085 93.8454 257.738 93.7064 257.438 93.5195C257.132 93.3327 256.895 93.0957 256.727 92.8086C256.553 92.5169 256.467 92.1706 256.467 91.7695C256.467 91.6784 256.478 91.5736 256.501 91.4551C256.519 91.3366 256.54 91.2546 256.563 91.209ZM262.735 85.9521L258.928 85.9521C258.636 85.9521 258.383 86.0114 258.169 86.1299C257.95 86.2438 257.782 86.417 257.663 86.6494C257.545 86.8818 257.485 87.1689 257.485 87.5107C257.485 87.8298 257.54 88.11 257.649 88.3516C257.759 88.5885 257.902 88.7754 258.08 88.9121C258.258 89.0443 258.449 89.1104 258.654 89.1104L258.654 90.375C258.39 90.375 258.128 90.3066 257.868 90.1699C257.608 90.0332 257.374 89.8372 257.164 89.582C256.95 89.3223 256.781 89.0124 256.658 88.6523C256.531 88.2878 256.467 87.8822 256.467 87.4355C256.467 86.8978 256.558 86.4238 256.74 86.0137C256.923 85.599 257.198 85.2754 257.567 85.043C257.932 84.806 258.39 84.6875 258.941 84.6875L262.387 84.6875C262.633 84.6875 262.895 84.667 263.173 84.626C263.451 84.5804 263.69 84.5143 263.891 84.4277L264 84.4277L264 85.7471C263.854 85.8109 263.66 85.861 263.419 85.8975C263.173 85.9339 262.945 85.9521 262.735 85.9521ZM259.516 85.7334L260.404 85.7197L260.404 86.998C260.404 87.3581 260.434 87.6794 260.493 87.9619C260.548 88.2445 260.632 88.4814 260.746 88.6729C260.86 88.8643 261.004 89.0101 261.177 89.1104C261.345 89.2106 261.544 89.2607 261.771 89.2607C262.004 89.2607 262.216 89.2083 262.407 89.1035C262.599 88.9987 262.751 88.8415 262.865 88.6318C262.975 88.4176 263.029 88.1556 263.029 87.8457C263.029 87.4583 262.947 87.1165 262.783 86.8203C262.619 86.5241 262.419 86.2894 262.182 86.1162C261.945 85.9385 261.715 85.8428 261.491 85.8291L262.1 85.2891C262.291 85.321 262.503 85.4076 262.735 85.5488C262.968 85.6901 263.191 85.8792 263.405 86.1162C263.615 86.3486 263.79 86.6266 263.932 86.9502C264.068 87.2692 264.137 87.6292 264.137 88.0303C264.137 88.5316 264.039 88.9714 263.843 89.3496C263.647 89.7233 263.385 90.015 263.057 90.2246C262.724 90.4297 262.353 90.5322 261.942 90.5322C261.546 90.5322 261.197 90.4548 260.896 90.2998C260.591 90.1449 260.338 89.9215 260.138 89.6299C259.933 89.3382 259.778 88.9873 259.673 88.5771C259.568 88.167 259.516 87.709 259.516 87.2031L259.516 85.7334ZM264.137 76.1563C264.137 76.6712 264.05 77.1383 263.877 77.5576C263.699 77.9723 263.451 78.3301 263.132 78.6309C262.813 78.9271 262.435 79.1549 261.997 79.3145C261.56 79.474 261.081 79.5537 260.562 79.5537L260.274 79.5537C259.673 79.5537 259.137 79.4648 258.668 79.2871C258.194 79.1094 257.793 78.8678 257.465 78.5625C257.137 78.2572 256.888 77.9108 256.72 77.5234C256.551 77.1361 256.467 76.735 256.467 76.3203C256.467 75.7917 256.558 75.3359 256.74 74.9531C256.923 74.5658 257.178 74.249 257.506 74.0029C257.829 73.7568 258.212 73.5745 258.654 73.4561C259.092 73.3376 259.57 73.2783 260.09 73.2783L260.657 73.2783L260.657 78.8018L259.625 78.8018L259.625 74.543L259.529 74.543C259.201 74.5612 258.882 74.6296 258.572 74.748C258.262 74.862 258.007 75.0443 257.807 75.2949C257.606 75.5456 257.506 75.8874 257.506 76.3203C257.506 76.6074 257.567 76.8717 257.69 77.1133C257.809 77.3548 257.987 77.5622 258.224 77.7354C258.461 77.9085 258.75 78.043 259.092 78.1387C259.434 78.2344 259.828 78.2822 260.274 78.2822L260.562 78.2822C260.912 78.2822 261.243 78.2344 261.553 78.1387C261.858 78.0384 262.127 77.8949 262.359 77.708C262.592 77.5166 262.774 77.2865 262.906 77.0176C263.038 76.7441 263.104 76.4342 263.104 76.0879C263.104 75.6413 263.013 75.263 262.831 74.9531C262.649 74.6432 262.405 74.3721 262.1 74.1396L262.708 73.374C262.95 73.5335 263.18 73.7363 263.398 73.9824C263.617 74.2285 263.795 74.5316 263.932 74.8916C264.068 75.2471 264.137 75.6686 264.137 76.1563ZM258.073 70.5439L264 70.5439L264 71.8154L256.604 71.8154L256.604 70.6123L258.073 70.5439ZM260.021 70.8037L260.001 71.3916C259.495 71.387 259.028 71.321 258.6 71.1934C258.167 71.0658 257.791 70.8766 257.472 70.626C257.153 70.3753 256.907 70.0632 256.733 69.6895C256.556 69.3158 256.467 68.8828 256.467 68.3906C256.467 68.0443 256.517 67.7253 256.617 67.4336C256.713 67.1419 256.866 66.889 257.075 66.6748C257.285 66.4606 257.554 66.2943 257.882 66.1758C258.21 66.0573 258.606 65.998 259.071 65.998L264 65.998L264 67.2627L259.133 67.2627C258.745 67.2627 258.436 67.3288 258.203 67.4609C257.971 67.5885 257.802 67.7708 257.697 68.0078C257.588 68.2448 257.533 68.5228 257.533 68.8418C257.533 69.2155 257.599 69.5277 257.731 69.7783C257.864 70.029 258.046 70.2295 258.278 70.3799C258.511 70.5303 258.777 70.6396 259.078 70.708C259.374 70.7718 259.689 70.8037 260.021 70.8037ZM259.324 66.0117L259.584 66.8594C259.178 66.8548 258.789 66.7887 258.415 66.6611C258.041 66.529 257.709 66.3398 257.417 66.0938C257.125 65.8431 256.895 65.5355 256.727 65.1709C256.553 64.8063 256.467 64.3893 256.467 63.9199C256.467 63.5234 256.519 63.1725 256.624 62.8672C256.729 62.5573 256.891 62.2975 257.109 62.0879C257.324 61.8737 257.599 61.7119 257.937 61.6025C258.274 61.4932 258.675 61.4385 259.14 61.4385L264 61.4385L264 62.71L259.126 62.71C258.711 62.71 258.39 62.776 258.162 62.9082C257.93 63.0358 257.768 63.2181 257.677 63.4551C257.581 63.6875 257.533 63.9655 257.533 64.2891C257.533 64.5671 257.581 64.8132 257.677 65.0273C257.772 65.2415 257.905 65.4215 258.073 65.5674C258.237 65.7132 258.426 65.8249 258.641 65.9023C258.855 65.9753 259.083 66.0117 259.324 66.0117ZM263.098 53.0918C263.098 52.791 263.036 52.513 262.913 52.2578C262.79 52.0026 262.621 51.793 262.407 51.6289C262.188 51.4648 261.94 51.3714 261.662 51.3486L261.662 50.1455C262.1 50.1683 262.507 50.3164 262.886 50.5898C263.259 50.8587 263.563 51.2119 263.795 51.6494C264.023 52.0869 264.137 52.5677 264.137 53.0918C264.137 53.6478 264.039 54.1331 263.843 54.5479C263.647 54.958 263.378 55.2998 263.036 55.5732C262.694 55.8421 262.302 56.0449 261.86 56.1816C261.414 56.3138 260.942 56.3799 260.445 56.3799L260.158 56.3799C259.661 56.3799 259.192 56.3138 258.75 56.1816C258.303 56.0449 257.909 55.8421 257.567 55.5732C257.226 55.2998 256.957 54.958 256.761 54.5479C256.565 54.1331 256.467 53.6478 256.467 53.0918C256.467 52.513 256.585 52.0072 256.822 51.5742C257.055 51.1413 257.374 50.8018 257.779 50.5557C258.18 50.305 258.636 50.1683 259.146 50.1455L259.146 51.3486C258.841 51.3714 258.565 51.458 258.319 51.6084C258.073 51.7542 257.877 51.9548 257.731 52.21C257.581 52.4606 257.506 52.7546 257.506 53.0918C257.506 53.4792 257.583 53.805 257.738 54.0693C257.889 54.3291 258.094 54.5365 258.354 54.6914C258.609 54.8418 258.894 54.9512 259.208 55.0195C259.518 55.0833 259.835 55.1152 260.158 55.1152L260.445 55.1152C260.769 55.1152 261.088 55.0833 261.402 55.0195C261.717 54.9557 262.002 54.8486 262.257 54.6982C262.512 54.5433 262.717 54.3359 262.872 54.0762C263.022 53.8118 263.098 53.4837 263.098 53.0918ZM258.073 47.4658L264 47.4658L264 48.7373L256.604 48.7373L256.604 47.5342L258.073 47.4658ZM260.021 47.7256L260.001 48.3135C259.495 48.3089 259.028 48.2428 258.6 48.1152C258.167 47.9876 257.791 47.7985 257.472 47.5479C257.153 47.2972 256.907 46.985 256.733 46.6113C256.556 46.2376 256.467 45.8047 256.467 45.3125C256.467 44.9661 256.517 44.6471 256.617 44.3555C256.713 44.0638 256.866 43.8109 257.075 43.5967C257.285 43.3825 257.554 43.2161 257.882 43.0977C258.21 42.9792 258.606 42.9199 259.071 42.9199L264 42.9199L264 44.1846L259.133 44.1846C258.745 44.1846 258.436 44.2507 258.203 44.3828C257.971 44.5104 257.802 44.6927 257.697 44.9297C257.588 45.1667 257.533 45.4447 257.533 45.7637C257.533 46.1374 257.599 46.4495 257.731 46.7002C257.864 46.9508 258.046 47.1514 258.278 47.3018C258.511 47.4521 258.777 47.5615 259.078 47.6299C259.374 47.6937 259.689 47.7256 260.021 47.7256ZM259.324 42.9336L259.584 43.7813C259.178 43.7767 258.789 43.7106 258.415 43.583C258.041 43.4508 257.709 43.2617 257.417 43.0156C257.125 42.765 256.895 42.4574 256.727 42.0928C256.553 41.7282 256.467 41.3112 256.467 40.8418C256.467 40.4453 256.519 40.0944 256.624 39.7891C256.729 39.4792 256.891 39.2194 257.109 39.0098C257.324 38.7956 257.599 38.6338 257.937 38.5244C258.274 38.415 258.675 38.3604 259.14 38.3604L264 38.3604L264 39.6318L259.126 39.6318C258.711 39.6318 258.39 39.6979 258.162 39.8301C257.93 39.9577 257.768 40.14 257.677 40.377C257.581 40.6094 257.533 40.8874 257.533 41.2109C257.533 41.4889 257.581 41.735 257.677 41.9492C257.772 42.1634 257.905 42.3434 258.073 42.4893C258.237 42.6351 258.426 42.7467 258.641 42.8242C258.855 42.8971 259.083 42.9336 259.324 42.9336Z" fill="white"/>
</svg>
